:SAMPLES-PER-SECOND 30
:FULLY-SPECIFIED
:DEGREES
1458
root  30.7259 39.2515 10.2778 168.132 70.2856 173.111
RightUpLeg  -7.24633 -31.1869 -15.7367
RightLeg  23.8158 -9.85762 -4.95745
RightFoot  -2.7689 -0.331061 4.16189
RightToes  0.000481921 0.542163 -0.142578
Spine  26.6746 2.44052 16.3884
Spine1  9.99874 12.9376 -22.4552
HEad  6.22212 -29.7933 6.72084
LeftShoulder1  7.29705 -13.293 -37.3209
LeftArm  -4.17868 -10.5555 -37.3963
LeftForeArm  -171.072 -60.4025 -164.237
LeftHand  -0.25398 0.0180481 5.50724
RightShoulder  1.9233 6.89892 11.4119
RightArm  -54.1392 42.9686 -9.10417
RightForeArm  59.9558 17.4068 1.8594
RightHand  1.73852 3.66452 21.1341
LeftUpLeg  -13.0456 10.3198 0.740916
LeftLeg  15.9061 -2.13017 -0.582786
LeftFoot  2.73094 0.54058 -4.51411
LeftToes  1.06244e-005 4.65869e-005 -8.65518e-006
1459
root  30.4043 39.0863 10.5516 166.878 70.8065 170.942
RightUpLeg  -10.3708 -31.2364 -15.1195
RightLeg  26.0269 -9.42678 -5.2009
RightFoot  -3.38668 -0.289859 3.83312
RightToes  0.000481921 0.542163 -0.142578
Spine  29.5764 3.31747 17.377
Spine1  11.2112 15.9724 -26.0082
HEad  -0.00242527 -32.504 11.1735
LeftShoulder1  7.27256 -13.7892 -35.9686
LeftArm  -2.953 -14.9899 -38.003
LeftForeArm  -170.648 -59.0005 -165.109
LeftHand  -0.25398 0.0180481 5.50724
RightShoulder  1.67579 9.6224 5.0372
RightArm  -12.2029 47.7215 -2.97448
RightForeArm  45.2117 6.70667 7.53976
RightHand  1.72848 6.34342 16.3755
LeftUpLeg  -14.7861 11.2368 0.153032
LeftLeg  16.4934 -2.14395 -0.558123
LeftFoot  2.68531 0.63162 -5.26781
LeftToes  1.06244e-005 4.65869e-005 -8.65518e-006
1460
root  30.2627 38.9086 10.8201 166.933 71.0197 169.798
RightUpLeg  -13.4231 -32.0678 -14.1655
RightLeg  28.1914 -8.65496 -5.22871
RightFoot  -4.28725 -0.243144 3.46787
RightToes  0.000481921 0.542163 -0.142578
Spine  31.5991 4.20673 17.3073
Spine1  12.0793 18.0899 -27.9213
HEad  -5.73581 -33.7182 14.9093
LeftShoulder1  7.31572 -14.0737 -35.5426
LeftArm  -2.65124 -16.8267 -37.5046
LeftForeArm  -171.223 -57.1299 -166.092
LeftHand  -0.25398 0.0180481 5.50724
RightShoulder  1.50451 13.0759 0.686585
RightArm  26.7592 50.131 8.71137
RightForeArm  33.392 16.8238 8.17108
RightHand  1.39953 6.90924 12.6877
LeftUpLeg  -16.962 12.1097 -0.155587
LeftLeg  17.6228 -2.5169 -0.602981
LeftFoot  2.25952 0.73279 -6.25863
LeftToes  1.06244e-005 4.65869e-005 -8.65518e-006
1461
root  30.2498 38.7329 11.0532 168.585 70.555 170.519
RightUpLeg  -15.5695 -33.6477 -13.1239
RightLeg  30.085 -7.80795 -5.10133
RightFoot  -5.33183 -0.205294 3.22102
RightToes  0.000481921 0.542163 -0.142578
Spine  32.9632 4.97087 16.7608
Spine1  12.8691 19.1442 -27.6548
HEad  -10.2894 -34.1752 17.612
LeftShoulder1  7.59283 -14.313 -36.5118
LeftArm  -2.92052 -16.4608 -36.2997
LeftForeArm  -172.618 -55.2895 -166.911
LeftHand  -0.25398 0.0180481 5.50724
RightShoulder  1.89023 15.1513 1.94606
RightArm  35.3208 54.4664 19.7004
RightForeArm  28.7755 21.6608 4.17345
RightHand  1.16894 7.99995 9.5737
LeftUpLeg  -19.0796 11.8341 0.071706
LeftLeg  19.2087 -2.62373 -0.684267
LeftFoot  1.71179 0.780326 -6.90523
LeftToes  1.06244e-005 4.65869e-005 -8.65518e-006
1462
root  30.2928 38.5501 11.2404 170.807 69.2579 172.467
RightUpLeg  -16.4346 -35.6095 -12.4984
RightLeg  31.8895 -7.21701 -5.06509
RightFoot  -6.51921 -0.18145 3.25947
RightToes  0.000481921 0.542163 -0.142578
Spine  34.2591 5.40384 16.4571
Spine1  13.8866 19.4946 -25.8685
HEad  -13.8372 -34.56 19.1445
LeftShoulder1  8.03458 -14.6651 -38.0638
LeftArm  -3.15831 -15.0064 -35.0509
LeftForeArm  -173.916 -53.9566 -167.436
LeftHand  -0.25398 0.0180481 5.50724
RightShoulder  2.90089 15.3089 7.92848
RightArm  29.3547 58.8189 32.3856
RightForeArm  29.0185 24.5482 3.69163
RightHand  1.07251 8.07308 8.72884
LeftUpLeg  -20.7509 10.1405 0.664659
LeftLeg  21.167 -2.31318 -0.657519
LeftFoot  1.1641 0.743735 -6.84591
LeftToes  1.06244e-005 4.65869e-005 -8.65518e-006
